<svg width="182pt" height="92pt" viewBox="0.00 0.00 182.37 92.19" xmlns="http://www.w3.org/2000/svg" xmlns:xlink="http://www.w3.org/1999/xlink" style="width: 1170px;">
    <g id="graph0" class="graph" transform="scale(1 1) rotate(0) translate(4 88.1869)">
    <title>finite_state_machine</title>
    <polygon fill="#ffffff" stroke="transparent" points="-4,4 -4,-88.1869 178.3738,-88.1869 178.3738,4 -4,4"></polygon>
    <!-- q1 -->
    <g id="node1" class="node">
    <title>q1</title>

    <ellipse fill="none" stroke="#000000" cx="149.6804" cy="-24.6935" rx="24.8884" ry="24.8884" class="inactiveStates"></ellipse><ellipse fill="none" stroke="#000000" cx="149.6804" cy="-24.6935" rx="20.8568" ry="20.8568" class="inactiveStates"></ellipse>
    <text text-anchor="middle" x="149.6804" y="-20.4935" font-family="Times,serif" font-size="14.00" fill="#000000">q1</text>
    </g>
    <!-- q1&#45;&gt;q1 -->
    <g id="edge4" class="edge">
    <title>q1-&gt;q1</title>
    <path fill="none" stroke="#000000" d="M141.1901,-47.9685C140.3815,-58.3813 143.2116,-67.3869 149.6804,-67.3869 153.8244,-67.3869 156.4751,-63.691 157.6325,-58.2969"></path>
    <polygon fill="#000000" stroke="#000000" points="161.1455,-58.137 158.1706,-47.9685 154.155,-57.7728 161.1455,-58.137"></polygon>
    <text text-anchor="middle" x="149.6804" y="-71.5869" font-family="Times,serif" font-size="14.00" fill="#000000">0</text>
    </g>
    <!-- secret_node -->
    <!-- q0 -->
    <g id="node3" class="node">
    <title>q0</title>
    <ellipse fill="none" stroke="#000000" cx="61.2935" cy="-24.6935" rx="20.8887" ry="20.8887" class="currentState"></ellipse>
    <text text-anchor="middle" x="61.2935" y="-20.4935" font-family="Times,serif" font-size="14.00" fill="#000000">q0</text>
    </g>
    <!-- secret_node&#45;&gt;q0 -->
    <g id="edge1" class="edge">
    <title>secret_node-&gt;q0</title>
    <path fill="none" stroke="#000000" stroke-width="2" d="M3.7795,-24.6935C8.1326,-24.6935 19.0417,-24.6935 30.2036,-24.6935"></path>
    <polygon fill="#000000" stroke="#000000" stroke-width="2" points="30.3445,-28.1936 40.3444,-24.6935 30.3444,-21.1936 30.3445,-28.1936"></polygon>
    </g>
    <!-- q0&#45;&gt;q1 -->
    <g id="edge3" class="edge">
    <title>q0-&gt;q1</title>
    <path fill="none" stroke="#000000" d="M82.2399,-24.6935C91.9114,-24.6935 103.6593,-24.6935 114.6228,-24.6935"></path>
    <polygon fill="#000000" stroke="#000000" points="114.8006,-28.1936 124.8005,-24.6935 114.8005,-21.1936 114.8006,-28.1936"></polygon>
    <text text-anchor="middle" x="103.4869" y="-28.8935" font-family="Times,serif" font-size="14.00" fill="#000000">1</text>
    </g>
    <!-- q0&#45;&gt;q1 -->
    <g id="edge5" class="edge">
    <title>q0-&gt;q1</title>
    <path fill="none" stroke="#000000" d="M87.605,-8.3777C91.6266,-6.5321 95.8267,-4.9408 99.9869,-3.8935 110.1449,-1.3362 120.9263,-4.9978 129.8413,-9.9262"></path>
    <polygon fill="#000000" stroke="#000000" points="85.9228,-5.3072 78.6479,-13.0096 89.1382,-11.5251 85.9228,-5.3072"></polygon>
    <text text-anchor="middle" x="103.4869" y="-8.8935" font-family="Times,serif" font-size="14.00" fill="#000000">1</text>
    </g>
    <!-- q0&#45;&gt;q0 -->
    <g id="edge2" class="edge">
    <title>q0-&gt;q0</title>
    <path fill="none" stroke="#000000" d="M54.6786,-54.9089C55.6095,-59.9274 57.8144,-63.3869 61.2935,-63.3869 66.8599,-63.3869 69.1647,-54.5307 68.208,-44.602"></path>
    <polygon fill="#000000" stroke="#000000" points="58.1682,-54.496 54.3789,-44.602 51.1711,-54.6995 58.1682,-54.496"></polygon>
    <text text-anchor="middle" x="61.2935" y="-67.5869" font-family="Times,serif" font-size="14.00" fill="#000000">0</text>
    </g>
    </g>
</svg>
