<svg width="290pt" height="92pt" viewBox="0.00 0.00 289.82 92.19" xmlns="http://www.w3.org/2000/svg" xmlns:xlink="http://www.w3.org/1999/xlink" style="width: 724px;">
    <g id="graph0" class="graph" transform="scale(1 1) rotate(0) translate(4 88.1869)">
    <title>finite_state_machine</title>
    <polygon fill="#ffffff" stroke="transparent" points="-4,4 -4,-88.1869 285.8159,-88.1869 285.8159,4 -4,4"></polygon>
    <!-- q2 -->
    <g id="node1" class="node">
    <title>q2</title>

    <ellipse fill="none" stroke="#000000" cx="257.1225" cy="-24.6935" rx="24.8884" ry="24.8884" class="inactiveStates"></ellipse><ellipse fill="none" stroke="#000000" cx="257.1225" cy="-24.6935" rx="20.8568" ry="20.8568" class="inactiveStates"></ellipse>
    <text text-anchor="middle" x="257.1225" y="-20.4935" font-family="Times,serif" font-size="14.00" fill="#000000">q2</text>
    </g>
    <!-- q2&#45;&gt;q2 -->
    <g id="edge4" class="edge">
    <title>q2-&gt;q2</title>
    <path fill="none" stroke="#000000" d="M247.5653,-47.5338C246.5227,-58.1294 249.7084,-67.3869 257.1225,-67.3869 261.9879,-67.3869 265.0324,-63.4 266.2559,-57.6645"></path>
    <polygon fill="#000000" stroke="#000000" points="269.7586,-57.6714 266.6797,-47.5338 262.7647,-57.3788 269.7586,-57.6714"></polygon>
    <text text-anchor="middle" x="257.1225" y="-71.5869" font-family="Times,serif" font-size="14.00" fill="#000000">0..9</text>
    </g>
    <!-- secret_node -->
    <!-- q0 -->
    <g id="node3" class="node">
    <title>q0</title>
    <ellipse fill="none" stroke="#000000" cx="61.2935" cy="-24.6935" rx="20.8887" ry="20.8887" class="currentState"></ellipse>
    <text text-anchor="middle" x="61.2935" y="-20.4935" font-family="Times,serif" font-size="14.00" fill="#000000">q0</text>
    </g>
    <!-- secret_node&#45;&gt;q0 -->
    <g id="edge1" class="edge">
    <title>secret_node-&gt;q0</title>
    <path fill="none" stroke="#000000" stroke-width="2" d="M3.7795,-24.6935C8.1326,-24.6935 19.0417,-24.6935 30.2036,-24.6935"></path>
    <polygon fill="#000000" stroke="#000000" stroke-width="2" points="30.3445,-28.1936 40.3444,-24.6935 30.3444,-21.1936 30.3445,-28.1936"></polygon>
    </g>
    <!-- q1 -->
    <g id="node4" class="node">
    <title>q1</title>
    <ellipse fill="none" stroke="#000000" cx="154.7356" cy="-24.6935" rx="20.8887" ry="20.8887" class="inactiveStates"></ellipse>
    <text text-anchor="middle" x="154.7356" y="-20.4935" font-family="Times,serif" font-size="14.00" fill="#000000">q1</text>
    </g>
    <!-- q0&#45;&gt;q1 -->
    <g id="edge2" class="edge">
    <title>q0-&gt;q1</title>
    <path fill="none" stroke="#000000" d="M82.0313,-24.6935C94.165,-24.6935 109.7271,-24.6935 123.338,-24.6935"></path>
    <polygon fill="#000000" stroke="#000000" points="123.7326,-28.1935 133.7326,-24.6935 123.7325,-21.1935 123.7326,-28.1935"></polygon>
    <text text-anchor="middle" x="108.0145" y="-28.8935" font-family="Times,serif" font-size="14.00" fill="#000000">+,-</text>
    </g>
    <!-- q1&#45;&gt;q2 -->
    <g id="edge3" class="edge">
    <title>q1-&gt;q2</title>
    <path fill="none" stroke="#000000" d="M175.4551,-24.6935C188.7486,-24.6935 206.3525,-24.6935 221.8117,-24.6935"></path>
    <polygon fill="#000000" stroke="#000000" points="222.0922,-28.1935 232.0922,-24.6935 222.0922,-21.1935 222.0922,-28.1935"></polygon>
    <text text-anchor="middle" x="203.929" y="-28.8935" font-family="Times,serif" font-size="14.00" fill="#000000">0..9</text>
    </g>
    </g>
</svg>
