<svg width="469pt" height="92pt" viewBox="0.00 0.00 469.09 92.19" xmlns="http://www.w3.org/2000/svg" xmlns:xlink="http://www.w3.org/1999/xlink" style="width: 724px;">
    <g id="graph0" class="graph" transform="scale(1 1) rotate(0) translate(4 88.1869)">
    <title>finite_state_machine</title>
    <polygon fill="#ffffff" stroke="transparent" points="-4,4 -4,-88.1869 465.0897,-88.1869 465.0897,4 -4,4"></polygon>
    <!-- q4 -->
    <g id="node1" class="node">
    <title>q4</title>

    <ellipse fill="none" stroke="#000000" cx="436.3963" cy="-24.6935" rx="24.8884" ry="24.8884" class="inactiveStates"></ellipse><ellipse fill="none" stroke="#000000" cx="436.3963" cy="-24.6935" rx="20.8568" ry="20.8568" class="inactiveStates"></ellipse>
    <text text-anchor="middle" x="436.3963" y="-20.4935" font-family="Times,serif" font-size="14.00" fill="#000000">q4</text>
    </g>
    <!-- q4&#45;&gt;q4 -->
    <g id="edge7" class="edge">
    <title>q4-&gt;q4</title>
    <path fill="none" stroke="#000000" d="M426.8391,-47.5338C425.7965,-58.1294 428.9822,-67.3869 436.3963,-67.3869 441.2618,-67.3869 444.3062,-63.4 445.5297,-57.6645"></path>
    <polygon fill="#000000" stroke="#000000" points="449.0324,-57.6714 445.9535,-47.5338 442.0385,-57.3788 449.0324,-57.6714"></polygon>
    <text text-anchor="middle" x="436.3963" y="-71.5869" font-family="Times,serif" font-size="14.00" fill="#000000">0..9</text>
    </g>
    <!-- secret_node -->
    <!-- q0 -->
    <g id="node3" class="node">
    <title>q0</title>
    <ellipse fill="none" stroke="#000000" cx="61.2935" cy="-24.6935" rx="20.8887" ry="20.8887" class="currentState"></ellipse>
    <text text-anchor="middle" x="61.2935" y="-20.4935" font-family="Times,serif" font-size="14.00" fill="#000000">q0</text>
    </g>
    <!-- secret_node&#45;&gt;q0 -->
    <g id="edge1" class="edge">
    <title>secret_node-&gt;q0</title>
    <path fill="none" stroke="#000000" stroke-width="2" d="M3.7795,-24.6935C8.1326,-24.6935 19.0417,-24.6935 30.2036,-24.6935"></path>
    <polygon fill="#000000" stroke="#000000" stroke-width="2" points="30.3445,-28.1936 40.3444,-24.6935 30.3444,-21.1936 30.3445,-28.1936"></polygon>
    </g>
    <!-- q1 -->
    <g id="node4" class="node">
    <title>q1</title>
    <ellipse fill="none" stroke="#000000" cx="154.7356" cy="-24.6935" rx="20.8887" ry="20.8887" class="inactiveStates"></ellipse>
    <text text-anchor="middle" x="154.7356" y="-20.4935" font-family="Times,serif" font-size="14.00" fill="#000000">q1</text>
    </g>
    <!-- q0&#45;&gt;q1 -->
    <g id="edge2" class="edge">
    <title>q0-&gt;q1</title>
    <path fill="none" stroke="#000000" d="M82.0313,-24.6935C94.165,-24.6935 109.7271,-24.6935 123.338,-24.6935"></path>
    <polygon fill="#000000" stroke="#000000" points="123.7326,-28.1935 133.7326,-24.6935 123.7325,-21.1935 123.7326,-28.1935"></polygon>
    <text text-anchor="middle" x="108.0145" y="-28.8935" font-family="Times,serif" font-size="14.00" fill="#000000">+,-</text>
    </g>
    <!-- q2 -->
    <g id="node5" class="node">
    <title>q2</title>
    <ellipse fill="none" stroke="#000000" cx="253.1225" cy="-24.6935" rx="20.8887" ry="20.8887" class="inactiveStates"></ellipse>
    <text text-anchor="middle" x="253.1225" y="-20.4935" font-family="Times,serif" font-size="14.00" fill="#000000">q2</text>
    </g>
    <!-- q1&#45;&gt;q2 -->
    <g id="edge3" class="edge">
    <title>q1-&gt;q2</title>
    <path fill="none" stroke="#000000" d="M175.6009,-24.6935C189.0364,-24.6935 206.7485,-24.6935 221.8504,-24.6935"></path>
    <polygon fill="#000000" stroke="#000000" points="222.2872,-28.1935 232.2872,-24.6935 222.2872,-21.1935 222.2872,-28.1935"></polygon>
    <text text-anchor="middle" x="203.929" y="-28.8935" font-family="Times,serif" font-size="14.00" fill="#000000">0..9</text>
    </g>
    <!-- q2&#45;&gt;q2 -->
    <g id="edge4" class="edge">
    <title>q2-&gt;q2</title>
    <path fill="none" stroke="#000000" d="M245.8861,-44.2043C244.7729,-54.2929 247.185,-63.3869 253.1225,-63.3869 256.9262,-63.3869 259.2831,-59.6547 260.1931,-54.3198"></path>
    <polygon fill="#000000" stroke="#000000" points="263.6945,-54.2603 260.3588,-44.2043 256.6954,-54.1456 263.6945,-54.2603"></polygon>
    <text text-anchor="middle" x="253.1225" y="-67.5869" font-family="Times,serif" font-size="14.00" fill="#000000">0..9</text>
    </g>
    <!-- q3 -->
    <g id="node6" class="node">
    <title>q3</title>
    <ellipse fill="none" stroke="#000000" cx="334.0094" cy="-24.6935" rx="20.8887" ry="20.8887" class="inactiveStates"></ellipse>
    <text text-anchor="middle" x="334.0094" y="-20.4935" font-family="Times,serif" font-size="14.00" fill="#000000">q3</text>
    </g>
    <!-- q2&#45;&gt;q3 -->
    <g id="edge5" class="edge">
    <title>q2-&gt;q3</title>
    <path fill="none" stroke="#000000" d="M273.9529,-24.6935C282.8217,-24.6935 293.3508,-24.6935 303.0969,-24.6935"></path>
    <polygon fill="#000000" stroke="#000000" points="303.2496,-28.1936 313.2496,-24.6935 303.2495,-21.1936 303.2496,-28.1936"></polygon>
    <text text-anchor="middle" x="293.5659" y="-28.8935" font-family="Times,serif" font-size="14.00" fill="#000000">.</text>
    </g>
    <!-- q3&#45;&gt;q4 -->
    <g id="edge6" class="edge">
    <title>q3-&gt;q4</title>
    <path fill="none" stroke="#000000" d="M354.7289,-24.6935C368.0224,-24.6935 385.6263,-24.6935 401.0855,-24.6935"></path>
    <polygon fill="#000000" stroke="#000000" points="401.366,-28.1935 411.366,-24.6935 401.366,-21.1935 401.366,-28.1935"></polygon>
    <text text-anchor="middle" x="383.2028" y="-28.8935" font-family="Times,serif" font-size="14.00" fill="#000000">0..9</text>
    </g>
    </g>
</svg>
